<?xml version="1.0" standalone="no"?>
<!DOCTYPE svg PUBLIC "-//W3C//DTD SVG 20010904//EN"
 "http://www.w3.org/TR/2001/REC-SVG-20010904/DTD/svg10.dtd">
<svg version="1.0" xmlns="http://www.w3.org/2000/svg"
 width="2431.000000pt" height="2361.000000pt" viewBox="0 0 2431.000000 2361.000000"
 preserveAspectRatio="xMidYMid meet">

<g transform="translate(0.000000,2361.000000) scale(0.100000,-0.100000)"
fill="#FFFFFF" stroke="none">
<path d="M8410 23254 c-25 -2 -121 -8 -215 -15 -1221 -79 -2502 -468 -3590
-1092 -674 -386 -1240 -820 -1805 -1386 -879 -880 -1531 -1902 -1952 -3060
-282 -779 -438 -1539 -489 -2396 -13 -215 -6 -899 10 -1090 49 -555 134 -1058
251 -1480 22 -77 68 -246 104 -375 36 -129 128 -460 206 -735 77 -275 184
-653 236 -840 53 -187 129 -457 169 -600 40 -143 96 -341 124 -440 62 -223
150 -536 471 -1675 250 -890 330 -1172 620 -2205 209 -742 227 -805 234 -812
6 -6 495 125 508 136 8 7 -3 47 -167 631 -115 407 -173 616 -225 800 -59 210
-353 1254 -440 1565 -336 1189 -470 1670 -467 1678 1 5 18 -13 37 -40 19 -26
96 -124 171 -218 534 -665 1213 -1285 1914 -1746 214 -141 287 -186 470 -291
1764 -1011 3828 -1355 5835 -972 709 135 1446 380 2100 697 74 36 136 65 137
64 1 -2 -10 -16 -25 -32 -15 -17 -126 -138 -247 -270 -120 -132 -292 -319
-381 -415 -89 -96 -295 -321 -459 -500 -164 -179 -519 -565 -789 -859 -270
-294 -520 -566 -555 -605 -35 -39 -110 -120 -166 -181 -56 -60 -161 -175 -235
-255 -73 -80 -176 -192 -229 -250 -53 -58 -279 -303 -501 -545 -222 -242 -496
-541 -610 -665 -423 -460 -1029 -1119 -1465 -1595 -247 -269 -551 -600 -675
-735 -124 -135 -267 -291 -319 -347 l-93 -103 365 0 365 0 164 178 c89 97 240
260 333 362 94 102 222 241 285 310 103 113 271 296 404 440 29 30 171 185
316 345 146 159 319 348 386 420 66 71 324 353 574 625 250 272 500 545 556
605 129 141 570 620 1079 1175 219 239 451 491 514 560 64 69 159 172 211 229
52 57 100 109 105 115 6 6 105 114 220 241 116 126 266 290 336 365 69 74 327
356 574 625 247 270 495 540 551 600 150 163 1107 1205 1698 1851 381 415 660
763 913 1139 686 1018 1144 2189 1328 3390 14 94 27 173 28 177 1 5 26 -94 55
-220 30 -125 67 -281 82 -347 16 -66 225 -955 465 -1975 240 -1020 490 -2082
555 -2360 65 -278 209 -890 320 -1360 111 -470 237 -1006 280 -1190 44 -184
293 -1246 555 -2360 262 -1114 521 -2216 576 -2450 55 -234 134 -567 174 -740
41 -173 97 -411 124 -529 28 -118 51 -216 51 -218 0 -2 125 -3 279 -3 l278 0
-63 273 c-35 149 -79 337 -99 417 -19 80 -89 377 -155 660 -67 283 -175 742
-240 1020 -246 1044 -403 1710 -440 1870 -46 199 -275 1171 -295 1255 -8 33
-80 339 -160 680 -80 341 -154 656 -165 700 -44 186 -324 1378 -345 1470 -21
89 -73 310 -286 1215 -33 140 -87 370 -120 510 -33 140 -77 329 -99 420 -21
91 -55 235 -75 320 -20 85 -56 238 -80 340 -24 102 -186 790 -360 1530 -174
740 -325 1381 -335 1425 -10 44 -64 271 -119 505 -55 234 -123 522 -150 640
-28 118 -103 438 -167 710 -263 1123 -322 1336 -501 1820 -97 261 -200 497
-333 765 -183 370 -311 592 -535 930 -943 1421 -2328 2549 -3900 3175 -88 35
-164 67 -170 72 -5 4 2804 8 6243 8 l6252 0 0 265 0 265 -7927 -2 c-4361 -1
-7948 -3 -7973 -4z m895 -545 c1894 -108 3697 -908 5069 -2249 1009 -986 1729
-2205 2096 -3548 186 -681 272 -1333 273 -2052 0 -428 -25 -773 -84 -1170
-288 -1936 -1314 -3713 -2859 -4956 -1211 -975 -2676 -1570 -4225 -1719 -558
-53 -1168 -44 -1740 26 -2420 295 -4577 1690 -5827 3769 -484 805 -820 1694
-992 2625 -125 679 -159 1432 -96 2130 137 1504 704 2925 1647 4127 552 703
1256 1337 2018 1816 1039 652 2208 1054 3430 1177 421 42 841 50 1290 24z"/>
<path d="M11950 20819 c-1467 -90 -2820 -521 -4040 -1287 -762 -478 -1467
-1103 -2040 -1807 -62 -77 -120 -148 -128 -157 -14 -17 2 -18 330 -18 l345 0
64 78 c344 417 848 869 1379 1233 93 64 356 232 435 278 147 86 231 134 310
176 1013 541 2012 842 3165 952 265 25 1075 25 1335 0 410 -39 914 -119 1125
-177 80 -22 78 -13 -20 86 -125 126 -341 322 -513 466 l-138 115 -97 12 c-173
20 -413 41 -597 51 -210 11 -721 11 -915 -1z"/>
<path d="M3315 16799 c-216 -22 -465 -79 -653 -150 -865 -325 -1288 -1088
-1111 -2005 80 -419 322 -786 669 -1019 377 -252 887 -369 1461 -335 398 23
694 89 929 207 l95 48 15 158 c9 86 13 157 9 157 -3 0 -26 -15 -50 -33 -175
-131 -475 -257 -731 -306 -535 -103 -1020 1 -1368 295 -429 362 -612 1047
-451 1694 69 275 192 500 381 691 244 249 538 376 940 409 416 34 853 -104
1165 -370 33 -28 66 -49 75 -48 10 2 29 59 62 188 26 102 48 190 48 196 0 18
-277 103 -495 153 -241 56 -387 72 -655 76 -135 2 -285 -1 -335 -6z"/>
<path d="M5260 15050 l0 -1700 1135 0 c856 0 1135 3 1135 12 0 6 -8 35 -17 64
-16 51 -16 57 2 128 10 42 16 78 13 81 -3 4 -41 2 -84 -4 -44 -6 -200 -15
-349 -21 -148 -6 -369 -15 -490 -20 -121 -5 -361 -9 -532 -10 l-313 0 0 735 0
735 578 0 c431 0 617 -4 737 -15 88 -8 191 -15 229 -15 61 0 67 2 61 18 -4 9
-12 40 -18 69 -9 44 -8 61 7 108 10 31 15 59 12 62 -2 3 -62 -1 -133 -8 -86
-9 -346 -14 -800 -16 l-673 -4 0 636 0 635 335 0 c336 0 818 -22 1208 -56 104
-9 191 -14 193 -11 3 3 -3 35 -13 71 -16 63 -16 70 0 134 9 37 17 73 17 80 0
9 -231 12 -1120 12 l-1120 0 0 -1700z"/>
<path d="M8060 15035 l0 -1717 28 7 c124 32 364 32 445 0 16 -7 17 36 17 824
l0 831 233 0 233 0 226 -242 c239 -258 812 -909 939 -1068 68 -85 270 -342
273 -347 1 -1 46 5 101 14 109 16 404 13 480 -6 22 -5 41 -9 43 -7 6 7 -144
185 -394 466 -144 162 -452 511 -684 775 l-423 480 139 26 c386 74 703 245
860 466 166 232 195 553 71 788 -43 81 -154 189 -252 244 -133 76 -334 134
-565 162 -62 7 -385 13 -932 16 l-838 4 0 -1716z m1610 1497 c304 -74 472
-234 517 -489 36 -203 -28 -422 -166 -566 -222 -233 -574 -319 -1238 -301
l-263 7 0 683 0 684 78 1 c42 1 196 4 342 8 371 9 623 -1 730 -27z"/>
<path d="M11417 16743 c-9 -8 -9 -3408 0 -3416 3 -4 12 -2 20 4 22 19 182 23
231 6 l42 -15 0 1355 0 1354 34 -3 c30 -3 81 -49 428 -393 1166 -1155 2209
-2198 2253 -2252 l50 -63 83 0 82 0 0 1715 c0 1365 -3 1715 -12 1715 -7 0 -35
-7 -62 -15 -62 -19 -116 -19 -186 0 -30 8 -58 15 -62 15 -5 0 -8 -581 -8
-1291 0 -1280 0 -1290 -20 -1287 -16 2 -777 733 -1894 1819 -94 91 -308 299
-476 462 l-305 296 -96 1 c-53 0 -99 -3 -102 -7z"/>
<path d="M3970 12453 c0 -502 52 -1080 141 -1558 162 -873 479 -1755 910
-2527 l54 -98 170 -89 c258 -135 745 -354 745 -335 0 2 -17 28 -38 57 -184
249 -445 683 -615 1022 -431 863 -692 1771 -786 2735 -24 238 -42 617 -40 808
0 73 0 135 -2 136 -2 2 -124 6 -271 10 l-268 6 0 -167z"/>
<path d="M21690 21003 c0 -3 -32 -231 -70 -507 -39 -276 -86 -611 -105 -746
-19 -135 -69 -486 -110 -780 -42 -294 -96 -677 -120 -850 -24 -173 -67 -477
-95 -675 -28 -198 -73 -517 -100 -710 -27 -192 -74 -528 -105 -745 -205 -1457
-255 -1810 -256 -1817 0 -4 -31 114 -68 262 -242 956 -612 1795 -1149 2605
-834 1259 -2004 2280 -3367 2941 -204 99 -325 153 -330 147 -2 -2 42 -64 97
-138 126 -171 310 -445 418 -623 60 -99 93 -143 115 -154 128 -66 584 -370
788 -525 631 -480 1214 -1076 1664 -1704 263 -366 449 -675 656 -1090 421
-840 682 -1740 776 -2674 38 -370 50 -833 32 -1180 -64 -1205 -369 -2287 -945
-3355 l-86 -159 86 -366 c47 -201 87 -366 89 -368 3 -4 123 182 217 338 546
904 924 1952 1089 3018 19 123 25 142 41 142 10 0 18 1 18 3 0 5 99 706 186
1322 93 658 147 1044 269 1910 53 374 125 885 160 1135 36 250 80 568 99 705
41 294 549 3894 605 4295 22 151 38 277 35 279 -5 5 -470 70 -506 71 -16 0
-28 -3 -28 -7z"/>
<path d="M18310 7134 c-391 -430 -901 -872 -1405 -1216 -980 -668 -2147 -1121
-3315 -1287 -424 -61 -658 -76 -1135 -76 -437 0 -667 15 -1085 70 l-45 6 -200
-217 c-200 -217 -230 -252 -224 -259 7 -6 311 -54 470 -74 1157 -147 2312 -58
3433 264 1333 383 2597 1121 3562 2080 l202 200 -74 309 c-40 169 -74 310 -76
312 -2 1 -51 -49 -108 -112z"/>
<path d="M6591 6342 c311 -292 615 -542 929 -764 537 -379 1067 -673 1645
-914 157 -65 384 -152 413 -159 31 -6 15 -21 233 215 192 209 192 209 178 215
-8 3 -59 20 -114 39 -822 281 -1563 671 -2240 1179 l-80 60 -170 29 c-231 39
-431 80 -671 139 -111 27 -205 49 -210 49 -4 0 35 -40 87 -88z"/>
</g>
</svg>
