<svg width="988px" height="177px" viewBox="0 0 988 177" version="1.1" xmlns="http://www.w3.org/2000/svg" xmlns:xlink="http://www.w3.org/1999/xlink">

    <g id="Page-1" stroke="none" stroke-width="1" fill="none" fill-rule="evenodd">
        <g id="fanduel" fill-rule="nonzero" fill="#FFFFFF">
            <path d="M235.047,145.747 L254.247,145.747 C255.047,145.747 255.747,145.047 255.747,144.247 L255.747,99.547 L290.147,99.547 C290.747,99.547 291.347,99.147 291.547,98.547 L297.647,81.747 C298.047,80.747 297.247,79.747 296.247,79.747 L255.747,79.747 L255.747,51.747 L307.447,51.747 C308.047,51.747 308.647,51.347 308.847,50.747 L314.947,33.947 C315.347,32.947 314.547,31.947 313.547,31.947 L234.947,31.947 C234.147,31.947 233.447,32.647 233.447,33.447 L233.447,144.247 C233.547,145.047 234.247,145.747 235.047,145.747 Z" id="Shape"></path>
            <path d="M358.147,32.847 L317.847,143.647 C317.447,144.647 318.247,145.647 319.247,145.647 L339.247,145.647 C339.847,145.647 340.447,145.247 340.647,144.647 L347.147,125.547 L387.647,125.547 L394.047,144.647 C394.247,145.247 394.847,145.647 395.447,145.647 L415.347,145.647 C416.347,145.647 417.147,144.647 416.747,143.647 L376.247,32.847 C376.047,32.247 375.447,31.847 374.847,31.847 L359.547,31.847 C358.847,31.847 358.347,32.247 358.147,32.847 Z M353.347,106.847 L367.747,65.447 L381.647,106.847 L353.347,106.847 Z" id="Shape"></path>
            <path d="M507.647,101.547 L463.047,32.547 C462.747,32.147 462.247,31.847 461.747,31.847 L444.247,31.847 C443.447,31.847 442.747,32.547 442.747,33.347 L442.747,144.147 C442.747,144.947 443.447,145.647 444.247,145.647 L463.447,145.647 C464.247,145.647 464.947,144.947 464.947,144.147 L464.947,75.847 L509.547,145.047 C509.847,145.447 510.347,145.747 510.847,145.747 L528.347,145.747 C529.147,145.747 529.847,145.047 529.847,144.247 L529.847,33.347 C529.847,32.547 529.147,31.847 528.347,31.847 L509.147,31.847 C508.347,31.847 507.647,32.547 507.647,33.347 L507.647,101.547 Z" id="Shape"></path>
            <path d="M744.147,105.947 C744.147,119.047 736.347,126.847 724.347,126.847 C712.347,126.847 704.647,119.047 704.647,105.947 L704.647,33.447 C704.647,32.647 703.947,31.947 703.147,31.947 L683.947,31.947 C683.147,31.947 682.447,32.647 682.447,33.447 L682.447,106.747 C682.447,130.847 700.947,146.747 724.347,146.747 C747.647,146.747 766.247,130.947 766.247,106.747 L766.247,33.447 C766.247,32.647 765.547,31.947 764.747,31.947 L745.747,31.947 C744.947,31.947 744.247,32.647 744.247,33.447 L744.247,105.947 L744.147,105.947 L744.147,105.947 Z" id="Shape"></path>
            <path d="M877.547,50.747 L883.647,33.947 C884.047,32.947 883.247,31.947 882.247,31.947 L803.747,31.947 C802.947,31.947 802.247,32.647 802.247,33.447 L802.247,144.247 C802.247,145.047 802.947,145.747 803.747,145.747 L882.247,145.747 C883.247,145.747 884.047,144.747 883.647,143.747 L877.547,126.947 C877.347,126.347 876.747,125.947 876.147,125.947 L824.447,125.947 L824.447,98.247 L866.047,98.247 C866.847,98.247 867.547,97.547 867.547,96.747 L867.547,79.947 C867.547,79.147 866.847,78.447 866.047,78.447 L824.447,78.447 L824.447,51.747 L876.147,51.747 C876.747,51.747 877.347,51.347 877.547,50.747 Z" id="Shape"></path>
            <path d="M979.447,125.947 L932.447,125.947 L932.447,33.447 C932.447,32.647 931.747,31.947 930.947,31.947 L911.747,31.947 C910.947,31.947 910.247,32.647 910.247,33.447 L910.247,144.247 C910.247,145.047 910.947,145.747 911.747,145.747 L985.647,145.747 C986.647,145.747 987.447,144.747 987.047,143.747 L980.947,126.947 C980.647,126.247 980.047,125.947 979.447,125.947 Z" id="Shape"></path>
            <path d="M638.747,42.747 C631.247,35.247 620.547,31.847 608.647,31.847 L563.447,31.847 C562.447,31.847 561.747,32.747 561.947,33.647 L565.247,50.447 C565.347,51.147 566.047,51.647 566.747,51.647 L589.747,51.647 L595.547,51.647 L606.547,51.647 C614.247,51.647 619.347,54.047 623.147,58.647 C627.347,63.747 627.947,70.947 627.947,88.247 C627.947,105.547 627.347,113.647 623.147,118.747 C619.347,123.347 614.147,125.747 606.547,125.747 L589.747,125.747 L589.747,66.547 C589.747,65.747 589.047,65.047 588.247,65.047 L569.047,65.047 C568.247,65.047 567.547,65.747 567.547,66.547 L567.547,144.147 C567.547,144.947 568.247,145.647 569.047,145.647 L608.647,145.647 C620.447,145.647 631.147,142.247 638.747,134.747 C651.547,121.947 650.247,105.347 650.247,88.247 C650.347,71.247 651.547,55.547 638.747,42.747 Z" id="Shape"></path>
            <path d="M89.846,176.784 C141.905,146.302 177.247,89.483 177.247,25.282 C177.247,24.762 176.971,24.277 176.521,24.018 C154.965,11.643 129.692,3.495 103.155,1.395 C102.643,1.354 102.14,1.578 101.829,1.987 C94.92,11.049 88.952,20.867 84.07,31.295 C83.906,31.645 84.17,32.044 84.556,32.032 C86.047,31.986 87.544,31.963 89.046,31.963 C108.85,31.963 127.727,35.928 144.931,43.104 C139.884,82.471 119.08,116.908 89.046,139.89 C82.915,135.198 77.17,130.027 71.863,124.436 C71.515,124.069 70.899,124.368 70.979,124.868 C73.907,143.286 79.962,160.661 88.582,176.434 C88.827,176.884 89.403,177.043 89.846,176.784 Z" id="Shape"></path>
            <path d="M58.627,108.325 C55.123,103.379 51.918,98.206 49.045,92.83 C51.95,91.45 54.938,90.217 57.999,89.138 C58.558,88.941 58.944,88.435 58.984,87.843 C59.714,76.9 61.472,66.238 64.164,55.953 C64.258,55.594 63.942,55.261 63.579,55.336 C54.447,57.234 45.682,60.131 37.402,63.908 C35.501,57.159 34.074,50.212 33.162,43.104 C45.114,38.118 57.876,34.684 71.193,33.052 C71.675,32.993 72.088,32.681 72.279,32.235 C76.911,21.388 82.4,11.684 89.285,1.597 C89.501,1.28 89.274,0.845 88.891,0.847 C56.225,1 27.419,9.376 1.625,23.989 C1.143,24.262 0.848,24.781 0.848,25.335 C0.848,80.65 28.421,132.892 70.569,164.944 C70.979,165.256 71.535,164.823 71.34,164.347 C64.276,147.126 59.94,128.498 58.864,109.001 C58.849,108.758 58.767,108.524 58.627,108.325 Z" id="Shape"></path>
        </g>
    </g>
</svg>