<svg xmlns="http://www.w3.org/2000/svg" viewBox="0 0 223.98 150.51" opacity="1">
    <path d="M.93,21.53c0-3.41,0-6.89-.08-9.91H7.44A59.52,59.52,0,0,1,7.75,18c1.55-3.33,4.72-7.36,12.31-7.36,7.44,0,13.17,4.49,13.17,14.95V50.89H26.41V26.49c0-6-2.32-9.91-8.29-9.91-7.44,0-10.38,5.65-10.38,13.55V50.89H.93Z" stroke="rgb(147, 55, 138)" stroke-width="0" stroke-dasharray="208.41648864746094,0" style="fill: rgb(255,255,255);"></path>
    <path d="M78.53,31.14C78.53,42.52,72,51.82,60,51.82c-11.23,0-18-8.67-18-20.53,0-11.62,6.66-20.6,18.51-20.6C71.41,10.69,78.53,18.82,78.53,31.14Zm-29.59.08c0,8.67,4.34,14.95,11.39,14.95s11.23-6,11.23-14.87-4-14.95-11.39-14.95S48.95,22.31,48.95,31.21Z" stroke="rgb(147, 55, 138)" stroke-width="0" stroke-dasharray="208.0328369140625,0" style="fill: rgb(255,255,255);"></path>
    <path d="M82.33,11.62h6.82V0h6.74V11.62h8.67v5.5H95.88v23c0,3.87.93,5.81,4.49,5.81a18,18,0,0,0,3.41-.31v5.11a18.08,18.08,0,0,1-5.89.7c-6.12,0-8.75-3.18-8.75-9.68V17.12H82.33Z" stroke="rgb(147, 55, 138)" stroke-width="0" stroke-dasharray="157.68052673339844,0" style="fill: rgb(255,255,255);"></path>
    <path d="M.08,63.19H11.23V83.87c1.63-2.56,5-5.19,11.46-5.19C33.62,78.68,39,87.74,39,99c0,11.46-5.89,21.69-17.43,21.69-6,0-8.6-1.78-10.53-4.73a18.16,18.16,0,0,1-.46,3.8H0c.08-4.34.08-8.75.08-13.09Zm19.21,24.4c-6.35,0-8.6,4.1-8.6,12.31,0,6.74,2,11.93,8.44,11.93,5.65,0,8.67-5,8.67-12.62C27.81,92.47,25.25,87.59,19.29,87.59Z" stroke="rgb(147, 55, 138)" stroke-width="0" stroke-dasharray="256.051513671875,0" style="fill: rgb(255,255,255);"></path>
    <path d="M46.62,79.61H57.78v40.12H46.62Z" stroke="rgb(147, 55, 138)" stroke-width="0" stroke-dasharray="102.55998992919922,0" style="fill: rgb(255,255,255);"></path>
    <path d="M67.77,89.76c0-3.41,0-7.13-.08-10.15H78.46c.23,1.08.39,3.87.46,5.11,1.32-2.48,4.57-6,11.62-6,8.06,0,13.24,5.5,13.24,15.57v25.48H92.71V95.49c0-4.57-1.47-7.82-6.43-7.82-4.72,0-7.36,2.63-7.36,9.76v22.31H67.77Z" stroke="rgb(147, 55, 138)" stroke-width="0" stroke-dasharray="212.9079132080078,0" style="fill: rgb(255,255,255);"></path>
    <path d="M146.46,109.35a89.29,89.29,0,0,0,.54,10.38H136.39a15.71,15.71,0,0,1-.54-4c-1.47,2.25-4.18,4.88-11.31,4.88-9.68,0-13.71-6.35-13.71-12.55,0-9.14,7.28-13.4,19.05-13.4h5.73v-2.4c0-2.87-1-5.65-6.2-5.65-4.65,0-5.73,1.94-6.2,4.88H112.69c.54-7.13,5-12.86,17.19-12.86,10.69.08,16.58,4.26,16.58,13.86Zm-10.84-7.9h-4.49c-6.74,0-9.22,2.09-9.22,6,0,2.87,1.78,5.34,5.81,5.34,7,0,7.9-5,7.9-10.22Z" stroke="rgb(147, 55, 138)" stroke-width="0" stroke-dasharray="230.20372009277344,0" style="fill: rgb(255,255,255);"></path>
    <path d="M156.44,90.53c0-4,0-7.51-.08-10.92h10.92c.16.93.31,4.88.31,7,1.78-4.57,6-7.9,12.86-8V89.29c-8.06-.23-12.86,1.94-12.86,12.94v17.5H156.44Z" stroke="rgb(147, 55, 138)" stroke-width="0" stroke-dasharray="135.03387451171875,0" style="fill: rgb(255,255,255);"></path>
    <path d="M196.48,79.61c4.11,13.86,7.75,26.18,8.37,29.9h.08c.85-4,3.25-13,8-29.9H224L210.5,120.89c-3.8,11.54-7,14.95-16.65,14.95a50.23,50.23,0,0,1-5.19-.31v-8.91c.77.08,1.94.15,2.87.15,4.11,0,6.12-1.39,7.67-5.81L184.56,79.61Z" stroke="rgb(147, 55, 138)" stroke-width="0" stroke-dasharray="224.57362365722656,0" style="fill: rgb(255,255,255);"></path>
    <circle class="nb-logo-dot" cx="51.77" cy="139.08" r="11.43" style="fill: rgb(147, 55, 138);"></circle>
</svg>